<svg width="24" height="24" viewBox="0 0 24 24" fill="none" xmlns="http://www.w3.org/2000/svg">
<path d="M4.7466 4H19.2534C19.4141 4.05636 19.5598 4.14876 19.6793 4.27012C19.7988 4.39148 19.8889 4.53858 19.9427 4.70014C19.9966 4.86171 20.0128 5.03346 19.99 5.20224C19.9672 5.37102 19.9061 5.53234 19.8114 5.67386L14.2318 11.8114V19.6227L9.76818 16.275V11.8114L4.18865 5.67386C4.0939 5.53234 4.03279 5.37102 4.01002 5.20224C3.98725 5.03346 4.00341 4.86171 4.05726 4.70014C4.11112 4.53858 4.20124 4.39148 4.32073 4.27012C4.44021 4.14876 4.58589 4.05636 4.7466 4Z" stroke="white" stroke-width="2" stroke-linecap="round" stroke-linejoin="round"/>
</svg>
